<svg width="58" height="58" viewBox="0 0 58 58" fill="none" xmlns="http://www.w3.org/2000/svg">
<circle cx="29" cy="29" r="29" fill="#0ECC00" fill-opacity="0.1"/>
<path d="M19.875 34.5C19.1125 34.5 18.3812 34.1971 17.8421 33.6579C17.3029 33.1188 17 32.3875 17 31.625C17 30.8625 17.3029 30.1312 17.8421 29.5921C18.3812 29.0529 19.1125 28.75 19.875 28.75C20.6375 28.75 21.3688 29.0529 21.9079 29.5921C22.4471 30.1312 22.75 30.8625 22.75 31.625C22.75 32.3875 22.4471 33.1188 21.9079 33.6579C21.3688 34.1971 20.6375 34.5 19.875 34.5ZM28.5 31.625C27.7375 31.625 27.0062 31.3221 26.4671 30.7829C25.9279 30.2438 25.625 29.5125 25.625 28.75C25.625 27.9875 25.9279 27.2562 26.4671 26.7171C27.0062 26.1779 27.7375 25.875 28.5 25.875C29.2625 25.875 29.9938 26.1779 30.5329 26.7171C31.0721 27.2562 31.375 27.9875 31.375 28.75C31.375 29.5125 31.0721 30.2438 30.5329 30.7829C29.9938 31.3221 29.2625 31.625 28.5 31.625ZM37.125 28.75C36.3625 28.75 35.6312 28.4471 35.0921 27.9079C34.5529 27.3688 34.25 26.6375 34.25 25.875C34.25 25.1125 34.5529 24.3812 35.0921 23.8421C35.6312 23.3029 36.3625 23 37.125 23C37.8875 23 38.6188 23.3029 39.1579 23.8421C39.6971 24.3812 40 25.1125 40 25.875C40 26.6375 39.6971 27.3688 39.1579 27.9079C38.6188 28.4471 37.8875 28.75 37.125 28.75Z" fill="#5EC73B"/>
</svg>
