<svg width="54" height="54" viewBox="0 0 54 54" fill="none" xmlns="http://www.w3.org/2000/svg">
<circle cx="27" cy="27" r="26.5" stroke="black" stroke-opacity="0.33"/>
<path d="M35.4234 21.1228C35.8863 20.6599 36.141 20.0452 36.141 19.3912C36.141 18.7373 35.8863 18.1226 35.4234 17.6597L33.4813 15.7176C33.0184 15.2547 32.4036 15 31.7497 15C31.0958 15 30.4811 15.2547 30.0194 15.7164L17 28.6954V34.1018H22.4039L35.4234 21.1228ZM31.7497 17.4491L33.6931 19.39L31.7461 21.3297L29.8039 19.3888L31.7497 17.4491ZM19.4491 31.6527V29.7118L28.07 21.1179L30.0121 23.06L21.3925 31.6527H19.4491ZM17 36.5509H36.5928V39H17V36.5509Z" fill="black" fill-opacity="0.8"/>
</svg>
