<svg width="26" height="26" viewBox="0 0 26 26" fill="none" xmlns="http://www.w3.org/2000/svg">
<path fill-rule="evenodd" clip-rule="evenodd" d="M0.636963 13C0.636963 9.7211 1.93948 6.57654 4.25798 4.25804C6.57648 1.93954 9.72104 0.637024 12.9999 0.637024C16.2788 0.637024 19.4233 1.93954 21.7418 4.25804C24.0603 6.57654 25.3628 9.7211 25.3628 13C25.3628 16.2788 24.0603 19.4234 21.7418 21.7419C19.4233 24.0604 16.2788 25.3629 12.9999 25.3629C9.72104 25.3629 6.57648 24.0604 4.25798 21.7419C1.93948 19.4234 0.636963 16.2788 0.636963 13ZM12.9999 2.41036C10.1914 2.41036 7.49785 3.52604 5.51192 5.51198C3.52598 7.49792 2.4103 10.1914 2.4103 13C2.4103 15.8085 3.52598 18.502 5.51192 20.4879C7.49785 22.4739 10.1914 23.5896 12.9999 23.5896C15.8084 23.5896 18.5019 22.4739 20.4879 20.4879C22.4738 18.502 23.5895 15.8085 23.5895 13C23.5895 10.1914 22.4738 7.49792 20.4879 5.51198C18.5019 3.52604 15.8084 2.41036 12.9999 2.41036ZM17.394 8.60769C17.569 8.78272 17.6673 9.02007 17.6673 9.26756C17.6673 9.51505 17.569 9.7524 17.394 9.92743L14.3196 13L17.394 16.0725C17.5693 16.2477 17.6677 16.4854 17.6677 16.7333C17.6677 16.9811 17.5693 17.2188 17.394 17.3941C17.2188 17.5693 16.9811 17.6678 16.7332 17.6678C16.4854 17.6678 16.2477 17.5693 16.0724 17.3941L12.9999 14.3197L9.92736 17.3941C9.84059 17.4809 9.73757 17.5497 9.62419 17.5967C9.51081 17.6436 9.38929 17.6678 9.26656 17.6678C9.14384 17.6678 9.02232 17.6436 8.90894 17.5967C8.79556 17.5497 8.69254 17.4809 8.60576 17.3941C8.51899 17.3073 8.45015 17.2043 8.40319 17.0909C8.35622 16.9775 8.33205 16.856 8.33205 16.7333C8.33205 16.6106 8.35622 16.489 8.40319 16.3757C8.45015 16.2623 8.51899 16.1593 8.60576 16.0725L11.6802 13L8.60576 9.92743C8.43051 9.75217 8.33205 9.51447 8.33205 9.26662C8.33205 9.01878 8.43051 8.78108 8.60576 8.60582C8.78102 8.43057 9.01872 8.33211 9.26656 8.33211C9.51441 8.33211 9.75211 8.43057 9.92736 8.60582L12.9999 11.6802L16.0724 8.60582C16.1591 8.51891 16.2621 8.44995 16.3755 8.40289C16.4889 8.35584 16.6105 8.33162 16.7332 8.33162C16.856 8.33162 16.9776 8.35584 17.0909 8.40289C17.2043 8.44995 17.3073 8.51891 17.394 8.60582V8.60769Z" fill="#F2F2F2"/>
</svg>
